{
  "source": "C:\\Users\\Peter\\Desktop\\stuff\\MIUN\\quantitative_research\\video_compression\\videos\\BVI-HD\\BVI-HD_CDVL_videos\\ORIG\\SmokeGuns_1920x1080_60fps.mp4",
  "output": "C:\\Users\\Peter\\Desktop\\stuff\\MIUN\\quantitative_research\\video_compression\\compressed_videos\\BVI-HD\\vp9\\8\\SmokeGuns_1920x1080_60fps_vp9.webm",
  "codec": "vp9",
  "ok": "Input #0, mov,mp4,m4a,3gp,3g2,mj2, from 'C:\\Users\\Peter\\Desktop\\stuff\\MIUN\\quantitative_research\\video_compression\\videos\\BVI-HD\\BVI-HD_CDVL_videos\\ORIG\\SmokeGuns_1920x1080_60fps.mp4':\n  Metadata:\n    major_brand     : isom\n    minor_version   : 512\n    compatible_brands: isomiso2avc1mp41\n    encoder         : Lavf54.28.101\n  Duration: 00:00:05.00, start: 0.000000, bitrate: 384353 kb/s\n  Stream #0:0[0x1](und): Video: h264 (High 4:4:4 Predictive) (avc1 / 0x31637661), yuv420p(progressive), 1920x1080, 384348 kb/s, 60 fps, 60 tbr, 60 tbn (default)\n    Metadata:\n      handler_name    : VideoHandler\n      vendor_id       : [0][0][0][0]\n[out#0/webm @ 00000244f9b99700] Codec AVOption b:a (set bitrate (in bits/s)) has not been used for any stream. The most likely reason is either wrong type (e.g. a video option with no video streams) or that it is a private option of some decoder which was not actually used for any stream.\nStream mapping:\n  Stream #0:0 -> #0:0 (h264 (native) -> vp9 (libvpx-vp9))\nPress [q] to stop, [?] for help\n[libvpx-vp9 @ 00000244fa210640] v1.15.2-100-g40561f514\nOutput #0, webm, to 'C:\\Users\\Peter\\Desktop\\stuff\\MIUN\\quantitative_research\\video_compression\\compressed_videos\\BVI-HD\\vp9\\8\\SmokeGuns_1920x1080_60fps_vp9.webm':\n  Metadata:\n    major_brand     : isom\n    minor_version   : 512\n    compatible_brands: isomiso2avc1mp41\n    encoder         : Lavf62.3.100\n  Stream #0:0(und): Video: vp9, yuv420p(tv, progressive), 1920x1080, q=2-31, 8000 kb/s, 60 fps, 1k tbn (default)\n    Metadata:\n      encoder         : Lavc62.11.100 libvpx-vp9\n      handler_name    : VideoHandler\n      vendor_id       : [0][0][0][0]\n    Side data:\n      cpb: bitrate max/min/avg: 0/0/0 buffer size: 8000000 vbv_delay: N/A\nframe=    0 fps=0.0 q=0.0 size=       0KiB time=N/A bitrate=N/A speed=N/A elapsed=0:00:00.52    \nframe=    6 fps=5.4 q=35.0 size=       1KiB time=00:00:00.10 bitrate=  50.6kbits/s speed=0.0899x elapsed=0:00:01.11    \nframe=   12 fps=7.2 q=34.0 size=       1KiB time=00:00:00.20 bitrate=  25.3kbits/s speed=0.12x elapsed=0:00:01.66    \nframe=   16 fps=7.2 q=32.0 size=       1KiB time=00:00:00.26 bitrate=  19.0kbits/s speed=0.12x elapsed=0:00:02.21    \nframe=   21 fps=7.7 q=33.0 size=       1KiB time=00:00:00.35 bitrate=  14.5kbits/s speed=0.128x elapsed=0:00:02.73    \nframe=   24 fps=7.3 q=32.0 size=       1KiB time=00:00:00.40 bitrate=  12.7kbits/s speed=0.122x elapsed=0:00:03.26    \nframe=   29 fps=7.7 q=31.0 size=       1KiB time=00:00:00.48 bitrate=  10.5kbits/s speed=0.128x elapsed=0:00:03.77    \nframe=   33 fps=7.7 q=31.0 size=       1KiB time=00:00:00.55 bitrate=   9.2kbits/s speed=0.128x elapsed=0:00:04.30    \nframe=   36 fps=7.4 q=31.0 size=       1KiB time=00:00:00.60 bitrate=   8.4kbits/s speed=0.123x elapsed=0:00:04.85    \nframe=   39 fps=7.1 q=29.0 size=       1KiB time=00:00:00.63 bitrate=   8.0kbits/s speed=0.115x elapsed=0:00:05.48    \nframe=   41 fps=6.8 q=31.0 size=       1KiB time=00:00:00.68 bitrate=   7.4kbits/s speed=0.114x elapsed=0:00:06.01    \nframe=   44 fps=6.6 q=31.0 size=       1KiB time=00:00:00.73 bitrate=   6.9kbits/s speed=0.11x elapsed=0:00:06.64    \nframe=   47 fps=6.5 q=31.0 size=       1KiB time=00:00:00.78 bitrate=   6.5kbits/s speed=0.108x elapsed=0:00:07.26    \nframe=   49 fps=6.3 q=13.0 size=       1KiB time=00:00:00.81 bitrate=   6.2kbits/s speed=0.105x elapsed=0:00:07.81    \nframe=   53 fps=6.4 q=31.0 size=       1KiB time=00:00:00.88 bitrate=   5.7kbits/s speed=0.106x elapsed=0:00:08.32    \nframe=   57 fps=6.4 q=32.0 size=       1KiB time=00:00:00.95 bitrate=   5.3kbits/s speed=0.107x elapsed=0:00:08.87    \nframe=   60 fps=6.4 q=32.0 size=       1KiB time=00:00:01.00 bitrate=   5.1kbits/s speed=0.106x elapsed=0:00:09.41    \nframe=   62 fps=6.2 q=32.0 size=       1KiB time=00:00:01.03 bitrate=   4.9kbits/s speed=0.104x elapsed=0:00:09.97    \nframe=   65 fps=6.1 q=32.0 size=       1KiB time=00:00:01.08 bitrate=   4.7kbits/s speed=0.102x elapsed=0:00:10.57    \nframe=   68 fps=6.1 q=32.0 size=       1KiB time=00:00:01.13 bitrate=   4.5kbits/s speed=0.102x elapsed=0:00:11.10    \nframe=   71 fps=6.1 q=32.0 size=       1KiB time=00:00:01.18 bitrate=   4.3kbits/s speed=0.101x elapsed=0:00:11.67    \nframe=   72 fps=5.9 q=32.0 size=       1KiB time=00:00:01.20 bitrate=   4.2kbits/s speed=0.0983x elapsed=0:00:12.20    \nframe=   75 fps=5.9 q=31.0 size=       1KiB time=00:00:01.25 bitrate=   4.1kbits/s speed=0.098x elapsed=0:00:12.74    \nframe=   79 fps=5.9 q=32.0 size=       1KiB time=00:00:01.31 bitrate=   3.8kbits/s speed=0.0991x elapsed=0:00:13.28    \nframe=   82 fps=5.9 q=32.0 size=       1KiB time=00:00:01.36 bitrate=   3.7kbits/s speed=0.0988x elapsed=0:00:13.83    \nframe=   84 fps=5.8 q=32.0 size=       1KiB time=00:00:01.40 bitrate=   3.6kbits/s speed=0.0975x elapsed=0:00:14.36    \nframe=   86 fps=5.8 q=33.0 size=       1KiB time=00:00:01.43 bitrate=   3.5kbits/s speed=0.0962x elapsed=0:00:14.89    \nframe=   89 fps=5.8 q=32.0 size=       1KiB time=00:00:01.48 bitrate=   3.4kbits/s speed=0.0959x elapsed=0:00:15.46    \nframe=   93 fps=5.8 q=33.0 size=       1KiB time=00:00:01.55 bitrate=   3.3kbits/s speed=0.097x elapsed=0:00:15.98    \nframe=   96 fps=5.8 q=34.0 size=       1KiB time=00:00:01.60 bitrate=   3.2kbits/s speed=0.0967x elapsed=0:00:16.54    \nframe=   98 fps=5.7 q=33.0 size=       1KiB time=00:00:01.63 bitrate=   3.1kbits/s speed=0.0952x elapsed=0:00:17.14    \nframe=  101 fps=5.7 q=33.0 size=       1KiB time=00:00:01.66 bitrate=   3.0kbits/s speed=0.0942x elapsed=0:00:17.69    \nframe=  104 fps=5.7 q=34.0 size=       1KiB time=00:00:01.73 bitrate=   2.9kbits/s speed=0.0949x elapsed=0:00:18.26    \nframe=  108 fps=5.7 q=34.0 size=       1KiB time=00:00:01.80 bitrate=   2.8kbits/s speed=0.0957x elapsed=0:00:18.80    \nframe=  110 fps=5.7 q=36.0 size=       1KiB time=00:00:01.83 bitrate=   2.8kbits/s speed=0.0946x elapsed=0:00:19.37    \nframe=  113 fps=5.7 q=34.0 size=       1KiB time=00:00:01.88 bitrate=   2.7kbits/s speed=0.0944x elapsed=0:00:19.95    \nframe=  117 fps=5.7 q=35.0 size=       1KiB time=00:00:01.93 bitrate=   2.6kbits/s speed=0.0943x elapsed=0:00:20.49    \nframe=  118 fps=5.6 q=35.0 size=       1KiB time=00:00:01.96 bitrate=   2.6kbits/s speed=0.0934x elapsed=0:00:21.05    \nframe=  122 fps=5.7 q=33.0 size=       1KiB time=00:00:02.03 bitrate=   2.5kbits/s speed=0.0942x elapsed=0:00:21.58    \nframe=  126 fps=5.7 q=35.0 size=       1KiB time=00:00:02.10 bitrate=   2.4kbits/s speed=0.095x elapsed=0:00:22.11    \nframe=  128 fps=5.7 q=35.0 size=       1KiB time=00:00:02.13 bitrate=   2.4kbits/s speed=0.0943x elapsed=0:00:22.63    \nframe=  132 fps=5.7 q=33.0 size=    1792KiB time=00:00:02.18 bitrate=6723.7kbits/s speed=0.094x elapsed=0:00:23.22    \nframe=  135 fps=5.7 q=33.0 size=    1792KiB time=00:00:02.23 bitrate=6573.2kbits/s speed=0.0938x elapsed=0:00:23.79    \nframe=  139 fps=5.7 q=34.0 size=    1792KiB time=00:00:02.31 bitrate=6336.7kbits/s speed=0.0951x elapsed=0:00:24.35    \nframe=  142 fps=5.7 q=32.0 size=    1792KiB time=00:00:02.35 bitrate=6246.8kbits/s speed=0.0944x elapsed=0:00:24.90    \nframe=  144 fps=5.6 q=32.0 size=    1792KiB time=00:00:02.40 bitrate=6116.7kbits/s speed=0.0942x elapsed=0:00:25.48    \nframe=  148 fps=5.7 q=33.0 size=    1792KiB time=00:00:02.46 bitrate=5951.4kbits/s speed=0.0948x elapsed=0:00:26.02    \nframe=  151 fps=5.7 q=33.0 size=    1792KiB time=00:00:02.51 bitrate=5833.1kbits/s speed=0.0946x elapsed=0:00:26.60    \nframe=  153 fps=5.6 q=33.0 size=    1792KiB time=00:00:02.55 bitrate=5756.9kbits/s speed=0.0937x elapsed=0:00:27.20    \nframe=  157 fps=5.7 q=32.0 size=    1792KiB time=00:00:02.60 bitrate=5646.2kbits/s speed=0.0936x elapsed=0:00:27.78    \nframe=  160 fps=5.6 q=33.0 size=    1792KiB time=00:00:02.66 bitrate=5505.0kbits/s speed=0.0941x elapsed=0:00:28.33    \nframe=  163 fps=5.6 q=33.0 size=    1792KiB time=00:00:02.71 bitrate=5403.7kbits/s speed=0.0941x elapsed=0:00:28.85    \nframe=  164 fps=5.6 q=13.0 size=    1792KiB time=00:00:02.71 bitrate=5403.7kbits/s speed=0.0924x elapsed=0:00:29.40    \nframe=  167 fps=5.6 q=32.0 size=    1792KiB time=00:00:02.78 bitrate=5274.3kbits/s speed=0.0928x elapsed=0:00:29.98    \nframe=  170 fps=5.6 q=33.0 size=    1792KiB time=00:00:02.83 bitrate=5181.2kbits/s speed=0.0928x elapsed=0:00:30.52    \nframe=  174 fps=5.6 q=34.0 size=    1792KiB time=00:00:02.90 bitrate=5062.1kbits/s speed=0.0933x elapsed=0:00:31.09    \nframe=  175 fps=5.5 q=34.0 size=    1792KiB time=00:00:02.91 bitrate=5033.2kbits/s speed=0.092x elapsed=0:00:31.69    \nframe=  179 fps=5.6 q=32.0 size=    1792KiB time=00:00:02.96 bitrate=4948.3kbits/s speed=0.092x elapsed=0:00:32.24    \nframe=  182 fps=5.5 q=33.0 size=    1792KiB time=00:00:03.03 bitrate=4839.6kbits/s speed=0.0924x elapsed=0:00:32.82    \nframe=  186 fps=5.6 q=33.0 size=    1792KiB time=00:00:03.10 bitrate=4735.5kbits/s speed=0.0929x elapsed=0:00:33.38    \nframe=  187 fps=5.5 q=33.0 size=    1792KiB time=00:00:03.11 bitrate=4710.2kbits/s speed=0.0918x elapsed=0:00:33.93    \nframe=  190 fps=5.5 q=31.0 size=    1792KiB time=00:00:03.16 bitrate=4635.8kbits/s speed=0.0918x elapsed=0:00:34.48    \nframe=  193 fps=5.5 q=33.0 size=    1792KiB time=00:00:03.21 bitrate=4563.7kbits/s speed=0.0918x elapsed=0:00:35.05    \nframe=  197 fps=5.5 q=33.0 size=    1792KiB time=00:00:03.28 bitrate=4471.1kbits/s speed=0.0922x elapsed=0:00:35.60    \nframe=  199 fps=5.5 q=33.0 size=    1792KiB time=00:00:03.31 bitrate=4426.1kbits/s speed=0.0917x elapsed=0:00:36.15    \nframe=  202 fps=5.5 q=31.0 size=    1792KiB time=00:00:03.36 bitrate=4360.4kbits/s speed=0.0917x elapsed=0:00:36.72    \nframe=  205 fps=5.5 q=32.0 size=    1792KiB time=00:00:03.41 bitrate=4296.6kbits/s speed=0.0915x elapsed=0:00:37.34    \nframe=  209 fps=5.5 q=32.0 size=    1792KiB time=00:00:03.48 bitrate=4214.4kbits/s speed=0.0919x elapsed=0:00:37.90    \nframe=  211 fps=5.5 q=32.0 size=    1792KiB time=00:00:03.51 bitrate=4174.4kbits/s speed=0.0914x elapsed=0:00:38.45    \nframe=  214 fps=5.5 q=31.0 size=    1792KiB time=00:00:03.56 bitrate=4115.9kbits/s speed=0.0914x elapsed=0:00:39.01    \nframe=  217 fps=5.5 q=31.0 size=    1792KiB time=00:00:03.61 bitrate=4059.0kbits/s speed=0.0915x elapsed=0:00:39.54    \nframe=  221 fps=5.5 q=32.0 size=    1792KiB time=00:00:03.68 bitrate=3985.5kbits/s speed=0.0918x elapsed=0:00:40.11    \nframe=  224 fps=5.5 q=13.0 size=    1792KiB time=00:00:03.73 bitrate=3932.2kbits/s speed=0.0918x elapsed=0:00:40.67    \nframe=  227 fps=5.5 q=31.0 size=    1792KiB time=00:00:03.78 bitrate=3880.2kbits/s speed=0.0918x elapsed=0:00:41.20    \nframe=  230 fps=5.5 q=31.0 size=    1792KiB time=00:00:03.83 bitrate=3829.6kbits/s speed=0.0919x elapsed=0:00:41.73    \nframe=  233 fps=5.5 q=31.0 size=    1792KiB time=00:00:03.88 bitrate=3780.3kbits/s speed=0.0919x elapsed=0:00:42.27    \nframe=  235 fps=5.5 q=31.0 size=    1792KiB time=00:00:03.91 bitrate=3748.1kbits/s speed=0.0915x elapsed=0:00:42.80    \nframe=  239 fps=5.5 q=30.0 size=    1792KiB time=00:00:03.98 bitrate=3685.4kbits/s speed=0.0919x elapsed=0:00:43.33    \nframe=  242 fps=5.5 q=31.0 size=    1792KiB time=00:00:04.03 bitrate=3639.7kbits/s speed=0.0918x elapsed=0:00:43.93    \nframe=  245 fps=5.5 q=31.0 size=    1792KiB time=00:00:04.08 bitrate=3595.1kbits/s speed=0.0918x elapsed=0:00:44.49    \nframe=  247 fps=5.5 q=30.0 size=    1792KiB time=00:00:04.11 bitrate=3566.0kbits/s speed=0.0913x elapsed=0:00:45.08    \nframe=  250 fps=5.5 q=29.0 size=    1792KiB time=00:00:04.16 bitrate=3523.2kbits/s speed=0.0913x elapsed=0:00:45.64    \nframe=  254 fps=5.5 q=30.0 size=    1792KiB time=00:00:04.23 bitrate=3467.7kbits/s speed=0.0917x elapsed=0:00:46.18    \nframe=  256 fps=5.5 q=30.0 size=    1792KiB time=00:00:04.26 bitrate=3440.6kbits/s speed=0.0913x elapsed=0:00:46.74    \nframe=  259 fps=5.5 q=27.0 size=    4096KiB time=00:00:04.31 bitrate=7773.2kbits/s speed=0.0913x elapsed=0:00:47.29    \nframe=  263 fps=5.5 q=29.0 size=    4096KiB time=00:00:04.38 bitrate=7655.0kbits/s speed=0.0917x elapsed=0:00:47.81    \nframe=  267 fps=5.5 q=30.0 size=    4096KiB time=00:00:04.45 bitrate=7540.3kbits/s speed=0.0921x elapsed=0:00:48.33    \nframe=  269 fps=5.5 q=12.0 size=    4096KiB time=00:00:04.48 bitrate=7484.3kbits/s speed=0.0917x elapsed=0:00:48.87    \nframe=  272 fps=5.5 q=30.0 size=    4096KiB time=00:00:04.53 bitrate=7401.7kbits/s speed=0.0917x elapsed=0:00:49.42    \nframe=  276 fps=5.5 q=31.0 size=    4096KiB time=00:00:04.60 bitrate=7294.4kbits/s speed=0.0921x elapsed=0:00:49.96    \nframe=  276 fps=5.5 q=31.0 size=    4096KiB time=00:00:04.60 bitrate=7294.4kbits/s speed=0.0911x elapsed=0:00:50.50    \nframe=  276 fps=5.4 q=31.0 size=    4096KiB time=00:00:04.60 bitrate=7294.4kbits/s speed=0.0901x elapsed=0:00:51.06    \nframe=  276 fps=5.3 q=31.0 size=    4096KiB time=00:00:04.60 bitrate=7294.4kbits/s speed=0.0892x elapsed=0:00:51.59    \nframe=  276 fps=5.3 q=31.0 size=    4096KiB time=00:00:04.60 bitrate=7294.4kbits/s speed=0.0882x elapsed=0:00:52.17    \nframe=  276 fps=5.2 q=31.0 size=    4096KiB time=00:00:04.60 bitrate=7294.4kbits/s speed=0.0872x elapsed=0:00:52.75    \nframe=  276 fps=5.2 q=31.0 size=    4096KiB time=00:00:04.60 bitrate=7294.4kbits/s speed=0.0863x elapsed=0:00:53.27    \nframe=  276 fps=5.1 q=31.0 size=    4096KiB time=00:00:04.60 bitrate=7294.4kbits/s speed=0.0855x elapsed=0:00:53.79    \n[out#0/webm @ 00000244f9b99700] video:4945KiB audio:0KiB subtitle:0KiB other streams:0KiB global headers:0KiB muxing overhead: 0.056344%\nframe=  300 fps=5.5 q=31.0 Lsize=    4948KiB time=00:00:05.00 bitrate=8106.3kbits/s speed=0.0923x elapsed=0:00:54.17    \n",
  "seconds": 54.4966094493866,
  "probe_out": {}
}